#N canvas 128 90 1311 788 12;
#X declare -lib else;
#X declare -lib iemlib;
#X obj 581 633 delwrite~ \$0-delay 4000;
#X obj 1134 603 declare -lib else;
#X obj 586 496 +~;
#X obj 604 470 r~ \$0-wet;
#X msg 604 404 size 0.75;
#X obj 604 378 loadbang;
#X obj 627 527 tgl 20 0 empty empty empty 0 -10 0 12 #fcfcfc #000000 #000000 0 1;
#X obj 581 538 *~;
#X obj 774 339 hsl 128 15 0 1 0 1 empty \$0-drywet empty -2 -8 0 10 #dcdcdc #000000 #000000 7620 1;
#X floatatom 771 366 5 0 0 0 - - - 0;
#X msg 771 389 wet \$1;
#X obj 586 444 else/plate.rev~;
#X msg 630 501 1;
#X obj 675 471 loadbang;
#X obj 118 285 micMaster 1;
#X obj 119 527 +~;
#X obj 119 704 s~ \$0-mic;
#X obj 581 603 lop~;
#X obj 795 429 vsl 20 170 400 2000 1 1 empty empty empty 0 -9 0 12 #fcfcfc #000000 #000000 6100 1;
#X floatatom 795 609 5 0 0 0 - - - 0;
#X obj 119 676 *~;
#N canvas 321 11 1329 906 toSpeaker 0;
#X obj 188 158 delread~ \$0-delay;
#X msg 188 131 2000;
#X obj 188 107 loadbang;
#X obj 189 331 dac~;
#X obj 189 301 *~;
#X obj 317 273 line~;
#X msg 317 247 \$1 50;
#X floatatom 406 243 5 0 0 0 - - - 0;
#X floatatom 155 207 5 0 0 0 - - - 0;
#X obj 102 234 *~ 0.125;
#X obj 141 57 inlet;
#X obj 101 260 outlet~;
#X obj 362 53 inlet;
#X floatatom 135 444 5 0 0 0 - - - 0;
#N canvas 1371 501 450 300 ampSubpatch 0;
#X obj 10 10 r~ out~;
#X obj 10 40 env~ 2048 1024;
#X obj 10 70 s myAmplitude;
#X connect 0 0 1 0;
#X connect 1 0 2 0;
#X restore 871 124 pd ampSubpatch;
#X msg 855 149 \; pd-ampSubpatch clear;
#X msg 838 192 \; pd-ampSubpatch obj 10 10 r~ out~;
#X obj 753 100 r windowSize;
#X obj 821 230 / 2;
#X obj 804 258 pack f f;
#X msg 804 283 \; pd-ampSubpatch obj 10 40 env~ \$1 \$2;
#X msg 787 324 \; pd-ampSubpatch connect 0 0 1 0;
#X msg 770 369 \; pd-ampSubpatch obj 10 70 s myAmplitude;
#X msg 754 416 \; pd-ampSubpatch connect 1 0 2 0;
#X obj 753 125 t b b b f f b b;
#X obj 1056 108 s windowSize;
#X msg 1056 80 1024;
#X obj 1056 54 loadbang;
#X obj 240 332 s~ out~;
#X obj 153 398 r myAmplitude;
#X obj 392 816 netreceive;
#X obj 459 841 tgl 20 0 empty empty empty 0 -10 0 12 #fcfcfc #000000 #000000 0 1;
#X obj 392 760 loadbang;
#X msg 392 790 listen 9990;
#X msg 355 734 send amplitude \$1;
#X obj 202 452 moses 60;
#X obj 255 485 - 60;
#X msg 215 483 0;
#X obj 301 572 pow 2;
#X floatatom 294 728 5 0 0 0 - - - 0;
#X obj 292 610 / 900;
#X obj 294 641 * 100;
#X obj 296 373 r micNoisegate;
#X obj 375 593 pow 2;
#X obj 375 403 r exponent;
#X obj 355 679 moses 100;
#X msg 415 705 100;
#X obj 308 460 t b f;
#X obj 322 517 - 60;
#X obj 375 431 t b f;
#X text 70 727 this is the amplitude sent -->;
#X floatatom 237 580 5 0 0 0 - - - 0;
#X msg 403 373 60;
#X obj 403 344 loadbang;
#X floatatom 319 405 5 0 0 0 - - - 0;
#X floatatom 425 432 5 0 0 0 - - - 0;
#X obj 357 462 f 60;
#X msg 308 488 90;
#X connect 0 0 9 0;
#X connect 0 0 4 0;
#X connect 1 0 0 0;
#X connect 2 0 1 0;
#X connect 4 0 3 0;
#X connect 4 0 3 1;
#X connect 4 0 28 0;
#X connect 5 0 4 1;
#X connect 6 0 5 0;
#X connect 8 0 9 1;
#X connect 9 0 11 0;
#X connect 10 0 8 0;
#X connect 12 0 6 0;
#X connect 12 0 7 0;
#X connect 17 0 24 0;
#X connect 18 0 19 1;
#X connect 19 0 20 0;
#X connect 24 0 23 0;
#X connect 24 1 22 0;
#X connect 24 2 21 0;
#X connect 24 3 19 0;
#X connect 24 4 18 0;
#X connect 24 5 16 0;
#X connect 24 6 15 0;
#X connect 26 0 25 0;
#X connect 27 0 26 0;
#X connect 29 0 13 0;
#X connect 29 0 35 0;
#X connect 30 1 31 0;
#X connect 32 0 33 0;
#X connect 33 0 30 0;
#X connect 34 0 30 0;
#X connect 35 0 37 0;
#X connect 35 1 36 0;
#X connect 36 0 38 0;
#X connect 37 0 38 0;
#X connect 38 0 40 0;
#X connect 40 0 41 0;
#X connect 41 0 45 0;
#X connect 42 0 35 1;
#X connect 42 0 36 1;
#X connect 42 0 47 0;
#X connect 42 0 54 0;
#X connect 42 0 56 1;
#X connect 43 0 40 1;
#X connect 44 0 49 0;
#X connect 44 0 55 0;
#X connect 45 0 34 0;
#X connect 45 0 39 0;
#X connect 45 1 46 0;
#X connect 46 0 34 0;
#X connect 46 0 39 0;
#X connect 47 0 57 0;
#X connect 47 1 48 1;
#X connect 48 0 43 0;
#X connect 48 0 51 0;
#X connect 49 0 56 0;
#X connect 49 1 43 1;
#X connect 49 1 38 1;
#X connect 52 0 47 0;
#X connect 53 0 52 0;
#X connect 56 0 47 0;
#X connect 57 0 48 0;
#X restore 964 617 pd toSpeaker;
#N canvas 804 230 987 743 effect1 0;
#X obj 356 480 else/pitch.shift~;
#X obj 312 315 r~ \$0-mic;
#X obj 342 406 +~;
#X obj 357 509 outlet~;
#X floatatom 409 444 5 0 0 0 - - - 0;
#X obj 370 366 r~ \$0-wet;
#X obj 551 309 r live;
#X obj 551 346 select 1;
#X floatatom 597 577 5 0 0 0 - - - 0;
#X obj 646 484 * 2;
#X obj 641 516 - 1;
#X obj 594 548 *;
#X obj 559 379 t b b;
#X obj 640 336 bng 20 250 50 0 empty empty empty 0 -10 0 12 #fcfcfc #000000 #000000;
#X obj 512 422 random 1000;
#X obj 564 472 + 250;
#X obj 652 421 random 4;
#X obj 657 452 != 0;
#X connect 0 0 3 0;
#X connect 1 0 2 0;
#X connect 2 0 0 0;
#X connect 4 0 0 1;
#X connect 5 0 2 1;
#X connect 6 0 7 0;
#X connect 7 0 12 0;
#X connect 9 0 10 0;
#X connect 10 0 11 1;
#X connect 11 0 8 0;
#X connect 11 0 0 1;
#X connect 12 0 14 0;
#X connect 12 1 16 0;
#X connect 13 0 12 0;
#X connect 14 0 15 0;
#X connect 15 0 11 0;
#X connect 16 0 17 0;
#X connect 17 0 9 0;
#X restore 585 346 pd effect1;
#X obj 964 642 s~ \$0-wet;
#X obj 964 416 vsl 20 170 0 1 0 1 empty empty 2\ sec\ delay\ wet 0 -9 0 12 #fcfcfc #000000 #000000 5500 1;
#X floatatom 923 617 5 0 0 0 - - - 0;
#X obj 1122 364 vsl 20 170 0 1 0 1 empty empty Spkr\ Vol 0 -9 0 12 #fcfcfc #000000 #000000 16900 1;
#X msg 17 35 \; pd dsp 1;
#X obj 17 9 loadbang;
#X obj 136 643 r~ setMicVol;
#N canvas 896 325 690 609 setMic 0;
#X obj 203 380 s~ setMicVol;
#X obj 202 355 line~;
#X obj 186 33 inlet;
#X obj 184 158 spigot 1;
#X msg 236 130 0;
#X obj 274 55 delay 4000;
#X msg 274 81 1;
#X obj 186 63 t b b;
#X msg 188 207 1 10;
#X obj 246 205 delay 2000;
#X msg 246 239 0 10;
#X obj 362 133 s waiting;
#X obj 373 220 s live;
#X msg 373 173 1;
#X msg 404 173 0;
#X msg 364 324 1;
#X msg 402 324 0;
#X obj 368 362 s playback;
#X connect 1 0 0 0;
#X connect 2 0 7 0;
#X connect 3 0 5 0;
#X connect 3 0 8 0;
#X connect 3 0 9 0;
#X connect 3 0 13 0;
#X connect 4 0 3 1;
#X connect 4 0 11 0;
#X connect 5 0 6 0;
#X connect 6 0 3 1;
#X connect 6 0 11 0;
#X connect 6 0 16 0;
#X connect 7 0 4 0;
#X connect 7 1 3 0;
#X connect 8 0 1 0;
#X connect 9 0 10 0;
#X connect 9 0 14 0;
#X connect 9 0 15 0;
#X connect 10 0 1 0;
#X connect 13 0 12 0;
#X connect 14 0 12 0;
#X connect 15 0 17 0;
#X connect 16 0 17 0;
#X restore 626 250 pd setMic;
#X obj 386 414 - 100;
#X obj 386 387 env~;
#X obj 120 558 s~ rawMic;
#X obj 386 362 r~ \$0-mic;
#X obj 51 583 delwrite~ micDel 500;
#X obj 54 612 delread~ micDel 100;
#X obj 735 195 r~ rawMic;
#X obj 729 22 hsl 170 20 0 127 0 1 empty empty low\ thresh -2 -10 0 12 #fcfcfc #000000 #000000 0 1;
#X obj 750 83 hsl 170 20 0 127 0 1 empty empty high\ thresh -2 -10 0 12 #fcfcfc #000000 #000000 4657 1;
#X floatatom 738 49 5 0 0 0 - - - 0;
#X floatatom 764 107 5 0 0 0 - - - 0;
#X obj 727 134 t b f;
#X obj 735 164 pack f f;
#X obj 805 133 hsl 170 20 0 127 0 1 empty empty min\ velocity -2 -10 0 12 #fcfcfc #000000 #000000 3493 1;
#X floatatom 818 161 5 0 0 0 - - - 0;
#X obj 708 253 bng 20 250 50 0 empty empty empty 0 -10 0 12 #fcfcfc #000000 #000000;
#X obj 387 446 vu 20 200 empty empty -1 -10 0 12 #404040 #000000 1 0;
#X floatatom 84 212 5 0 0 0 - - - 0;
#X obj 37 340 vsl 20 170 0 500 0 1 empty empty Mic\ Delay 0 -9 0 12 #fcfcfc #000000 #000000 3381 1;
#X floatatom 16 523 5 0 0 0 - - - 0;
#X obj 118 23 vsl 20 170 0 5 0 1 empty empty Initial\ Mic\ Vol 0 -9 0 12 #fcfcfc #000000 #000000 3400 1;
#X floatatom 1058 539 5 0 0 0 - - - 0;
#X obj 200 37 vsl 20 170 -50 -10 0 1 empty empty Noisegate 0 -9 0 12 #fcfcfc #000000 #000000 0 1;
#X floatatom 160 221 5 0 0 0 - - - 0;
#N canvas 144 363 342 330 detectBonk 0;
#X obj 97 105 inlet~;
#X obj 150 272 outlet;
#X obj 118 133 inlet;
#X obj 138 155 inlet;
#X obj 118 243 bonk~;
#X msg 118 179 thresh \$1 \$2;
#X msg 138 211 minvel \$1;
#X connect 0 0 4 0;
#X connect 2 0 5 0;
#X connect 3 0 6 0;
#X connect 4 1 1 0;
#X connect 5 0 4 0;
#X connect 6 0 4 0;
#X restore 736 225 pd detectBonk;
#X obj 413 64 tgl 20 0 empty waiting waiting 0 -10 0 12 #fcfcfc #000000 #000000 0 1;
#X obj 413 105 tgl 20 0 empty live live 0 -10 0 12 #fcfcfc #000000 #000000 0 1;
#X obj 411 145 tgl 20 0 empty playback playback 0 -10 0 12 #fcfcfc #000000 #000000 0 1;
#X obj 1136 627 declare -lib iemlib;
#X obj 834 56 * 0.75;
#X obj 612 34 r sensitivity;
#X obj 771 306 r wet;
#X connect 2 0 7 0;
#X connect 3 0 2 1;
#X connect 4 0 11 0;
#X connect 5 0 4 0;
#X connect 6 0 7 1;
#X connect 7 0 17 0;
#X connect 8 0 9 0;
#X connect 9 0 10 0;
#X connect 10 0 11 0;
#X connect 11 0 2 0;
#X connect 12 0 6 0;
#X connect 13 0 12 0;
#X connect 14 0 15 0;
#X connect 15 0 33 0;
#X connect 15 0 35 0;
#X connect 17 0 0 0;
#X connect 18 0 17 1;
#X connect 18 0 19 0;
#X connect 20 0 16 0;
#X connect 21 0 23 0;
#X connect 22 0 11 0;
#X connect 24 0 25 0;
#X connect 24 0 21 0;
#X connect 26 0 21 1;
#X connect 26 0 52 0;
#X connect 28 0 27 0;
#X connect 29 0 20 1;
#X connect 31 0 47 0;
#X connect 32 0 31 0;
#X connect 34 0 32 0;
#X connect 36 0 20 0;
#X connect 37 0 55 0;
#X connect 38 0 40 0;
#X connect 38 0 43 0;
#X connect 39 0 41 0;
#X connect 39 0 42 0;
#X connect 39 0 60 0;
#X connect 42 0 43 0;
#X connect 42 1 43 1;
#X connect 43 0 55 1;
#X connect 44 0 45 0;
#X connect 44 0 55 2;
#X connect 49 0 50 0;
#X connect 49 0 36 0;
#X connect 51 0 48 0;
#X connect 51 0 14 0;
#X connect 53 0 54 0;
#X connect 53 0 14 1;
#X connect 55 0 46 0;
#X connect 55 0 30 0;
#X connect 60 0 44 0;
#X connect 61 0 39 0;
#X connect 62 0 8 0;
