#N canvas 0 0 1280 627 12;
#X obj 342 368 env~;
#X obj 19 11 vu 20 200 empty empty -1 -10 0 12 #404040 #000000 1 0;
#X obj 379 215 *~;
#X obj 334 145 line~;
#X obj 414 187 +~;
#X floatatom 282 121 5 0 0 0 - - - 0;
#X obj 231 30 bng 20 250 50 0 empty empty empty 0 -10 0 12 #fcfcfc #000000 #000000;
#X msg 334 118 \$1 100;
#X obj 334 90 value \$0-micVol 50;
#X obj 414 161 adc~ \$1;
#X obj 380 364 outlet~;
#X obj 407 259 else/noisegate~;
#X floatatom 482 231 5 0 0 0 - - - 0;
#X floatatom 300 398 5 0 0 0 - - - 0;
#X obj 335 25 inlet;
#X obj 482 149 inlet;
#X obj 342 421 s \$0-env;
#X obj 335 55 t b f;
#X obj 292 437 - 100;
#X connect 0 0 13 0;
#X connect 0 0 16 0;
#X connect 0 0 18 0;
#X connect 2 0 11 0;
#X connect 3 0 2 0;
#X connect 4 0 2 1;
#X connect 6 0 8 0;
#X connect 7 0 3 0;
#X connect 8 0 5 0;
#X connect 8 0 7 0;
#X connect 9 0 4 0;
#X connect 11 0 10 0;
#X connect 11 0 0 0;
#X connect 12 0 11 1;
#X connect 14 0 17 0;
#X connect 15 0 12 0;
#X connect 17 0 8 0;
#X connect 17 1 8 0;
#X connect 18 0 1 0;
#X coords 0 -1 1 1 80 230 2 0 0;
